<svg xmlns="http://www.w3.org/2000/svg" width="512" height="512"><linearGradient id="a" x1="38.65" x2="473.35" y1="38.65" y2="473.35" gradientTransform="rotate(-90 256 256)" gradientUnits="userSpaceOnUse"><stop offset="0" stop-color="#549eff"/><stop offset="1" stop-color="#006db0"/></linearGradient><linearGradient id="b" x1="136.57" x2="473.19" y1="136.88" y2="473.5" gradientUnits="userSpaceOnUse"><stop offset="0" stop-opacity=".35"/><stop offset="1" stop-opacity="0"/></linearGradient><g data-name="Layer 2"><g data-name="02.Envelope"><rect width="512" height="512" fill="url(#a)" rx="131.96" transform="rotate(90 256 256)"/><path fill="url(#b)" d="M512 273.45V380a132 132 0 0 1-132 132H272.83l-161-161-2.49-186.86 9.41-7.79h274.51l9.41 7.79z"/><g fill="#fff" data-name="02.Envelope"><path d="m284.61 262.1 108.65-105.76a20.5 20.5 0 0 0-7.77-1.53h-259a20.5 20.5 0 0 0-7.77 1.53L227.39 262.1a41 41 0 0 0 57.22 0"/><path d="M223.64 273.2 109.33 164.13a20.33 20.33 0 0 0-3.33 11.19v161.36a20.51 20.51 0 0 0 20.51 20.51h259A20.51 20.51 0 0 0 406 336.68V175.32a20.4 20.4 0 0 0-3.33-11.19L288.36 273.2a46.86 46.86 0 0 1-64.72 0"/></g></g></g></svg>