<svg width="512" height="512" viewBox="0 0 512 512" fill="none" xmlns="http://www.w3.org/2000/svg">
<path fill-rule="evenodd" clip-rule="evenodd" d="M253.813 20.9053C386.33 20.9053 493.809 128.384 493.809 260.902C493.809 393.419 386.33 500.898 253.813 500.898C121.295 500.898 13.8164 393.419 13.8164 260.902C13.8164 128.384 121.295 20.9053 253.813 20.9053Z" fill="url(#paint0_linear_105_1457)"/>
<path fill-rule="evenodd" clip-rule="evenodd" d="M377.235 176.69L339.559 354.207L314.165 358.814L261.843 320.428L234.678 347.357L194.758 278.854L238.222 214.721L350.779 175.155L377.235 176.69Z" fill="white"/>
<path fill-rule="evenodd" clip-rule="evenodd" d="M236.448 301.176C236.921 302.594 247.669 309.68 248.496 310.035L248.259 308.972L316.762 266.334C318.179 265.39 319.006 265.035 320.305 264.09C329.282 258.185 340.266 251.925 349.124 246.02L359.872 239.288C360.58 238.815 360.817 238.579 361.761 238.107C363.415 237.162 362.352 237.398 364.242 237.044L365.541 231.02C366.131 227.831 368.021 221.453 367.785 218.619C367.313 217.556 367.903 217.674 364.242 220.036C362.824 220.981 361.525 221.69 360.108 222.634L335.069 238.225C319.479 248.5 301.172 259.13 285.345 269.287L260.306 284.878C257.472 286.649 254.873 288.303 252.039 290.074L239.637 297.751C234.677 300.704 235.74 299.641 236.094 301.058L236.448 301.176Z" fill="#F2F8FB"/>
<path fill-rule="evenodd" clip-rule="evenodd" d="M248.5 310.035C248.972 311.216 252.87 313.578 254.169 314.641C256.413 316.176 258.421 317.594 260.311 319.129C260.665 317.712 260.429 318.302 261.256 317.476L287.948 300.822C289.011 300.114 289.956 299.641 291.019 298.933C292.2 298.224 292.909 297.87 294.09 297.043L360.467 255.823L361.648 251.217L363.301 243.422L364.482 237.162C362.475 237.516 363.538 237.28 362.002 238.225C361.057 238.815 360.821 238.933 360.112 239.406L349.365 246.138C340.506 252.044 329.522 258.303 320.546 264.209C319.129 265.154 318.42 265.508 317.003 266.453L248.5 309.09L248.736 310.153L248.5 310.035Z" fill="#F5FAFD"/>
<path fill-rule="evenodd" clip-rule="evenodd" d="M294.441 344.05C294.796 344.876 296.095 345.585 297.04 346.294C298.93 347.593 305.78 352.435 306.961 353.971C308.378 354.207 316.528 360.585 317.591 361.411C323.26 365.545 324.795 364.837 331.882 365.073C334.008 363.065 334.126 364.482 336.842 360.467C338.378 358.104 338.378 356.569 339.559 354.207L343.811 334.01L346.882 319.719C347.354 316.766 348.417 314.05 348.299 311.215L348.063 309.798L320.543 326.806C318.299 328.341 316.055 329.522 313.693 331.058L296.922 341.569C295.859 342.16 294.678 342.396 294.441 344.05Z" fill="#FEFEFF"/>
<path fill-rule="evenodd" clip-rule="evenodd" d="M229.129 295.743C229.72 296.924 234.917 300.468 236.452 301.176C236.098 299.877 235.035 300.822 239.995 297.869L252.397 290.192C255.231 288.421 257.712 286.885 260.664 284.995L285.703 269.405C301.53 259.248 319.837 248.5 335.427 238.343L360.466 222.752C361.883 221.807 363.182 221.099 364.6 220.154C368.261 217.792 367.67 217.792 368.143 218.737C369.442 217.319 369.442 213.658 370.033 211.532C370.269 209.878 370.741 209.052 370.387 207.516C369.442 206.217 370.859 206.453 369.088 206.453C368.379 207.516 361.765 211.414 360.348 212.241L316.411 239.76C301.53 249.445 284.876 259.13 269.995 268.815L232.673 292.2C231.846 292.672 229.838 293.499 229.484 294.326C228.893 295.389 227.83 293.263 229.366 295.743H229.129Z" fill="#F0F7FC"/>
<path fill-rule="evenodd" clip-rule="evenodd" d="M280.035 333.302C280.035 333.42 280.153 333.42 280.153 333.539C280.271 334.247 288.066 339.326 289.248 340.625C289.72 338.263 289.956 339.09 294.562 336.137C295.271 335.665 295.98 335.31 296.57 334.956C297.161 334.602 297.869 334.129 298.46 333.775L302.358 331.413C312.987 325.035 324.444 317.24 335.074 310.98L346.648 303.775C350.191 301.531 349.247 301.177 350.073 302.83C351.136 301.531 351.136 298.933 351.727 297.161L353.38 289.602V287.594C352.199 286.177 353.38 286.768 351.963 287.122L325.625 303.657C324.562 304.366 323.971 304.602 323.145 305.193C310.743 312.87 296.688 322.082 284.405 329.405C282.87 330.35 281.57 331.295 279.799 332.121C280.271 332.83 279.799 332.358 279.917 333.42L280.035 333.302Z" fill="#FBFDFE"/>
<path fill-rule="evenodd" clip-rule="evenodd" d="M251.686 330.822L272.236 339.562C276.134 341.215 304.244 354.089 307.078 353.971C305.897 352.436 299.047 347.593 297.157 346.294C296.212 345.585 294.795 344.877 294.559 344.05C292.315 342.987 291.37 341.924 289.362 340.625C288.063 339.326 280.386 334.247 280.268 333.538C280.268 333.42 280.15 333.42 280.15 333.302C278.142 332.475 276.843 331.176 275.189 329.995C273.89 329.05 272.236 327.869 270.819 326.806C268.811 325.271 263.969 321.373 261.961 320.546C260.307 322.2 259.008 323.381 257 325.625C255.347 327.515 253.103 328.696 251.804 330.94L251.686 330.822Z" fill="#2199CC"/>
<path fill-rule="evenodd" clip-rule="evenodd" d="M260.311 319.129L261.728 320.428C263.736 321.373 268.578 325.27 270.586 326.688C272.003 327.751 273.657 329.05 274.956 329.877C276.61 331.176 277.909 332.357 279.917 333.184C279.798 332.121 280.153 332.593 279.798 331.885C281.57 331.058 282.869 330.113 284.405 329.168C296.688 321.845 310.743 312.633 323.144 304.956C324.089 304.365 324.562 304.129 325.625 303.42L351.963 286.885C353.38 286.531 352.081 285.94 353.38 287.358L354.797 282.633C355.152 281.216 355.388 279.444 355.86 278.263L357.986 267.988L360.466 255.705L294.09 296.924C292.908 297.751 292.2 297.987 291.019 298.814C289.956 299.523 289.011 299.995 287.948 300.704L261.255 317.357C260.429 318.184 260.665 317.593 260.311 319.011V319.129Z" fill="#F7FBFD"/>
<path fill-rule="evenodd" clip-rule="evenodd" d="M359.639 158.738L341.096 165.942L326.096 171.73L300.585 181.769L289.128 186.021L257.003 198.422L248.499 201.611L225.232 210.587L210.468 216.256L192.87 223.107L176.571 229.485L166.295 233.5L155.075 237.752L144.209 242.004C143.382 242.595 137.359 245.075 136.296 245.429C135.705 246.138 122.123 253.815 134.642 260.075C137.831 261.61 190.035 278.145 194.641 278.972C197.24 277.909 200.901 275.429 203.382 273.775L246.609 246.492C268.695 232.555 294.325 216.965 315.585 202.91C320.663 199.485 329.994 192.517 334.246 195.587C334.482 198.422 331.175 200.312 328.813 202.32L308.498 220.863C307.317 221.926 306.136 222.634 305.073 223.697L298.341 229.957C296.805 231.256 296.333 231.729 294.797 233.146L226.885 294.562L227.594 295.625L228.893 295.862C227.358 293.381 228.421 295.507 229.011 294.444C229.483 293.617 231.373 292.791 232.2 292.318L269.522 268.933C284.404 259.248 301.057 249.563 315.939 239.878L359.875 212.359C361.411 211.414 368.025 207.635 368.615 206.572C370.269 206.572 368.851 206.335 369.914 207.635C370.269 207.162 370.032 207.516 370.505 206.572L372.985 194.997L376.056 180.588C376.883 175.981 378.418 171.611 377.473 166.769C376.647 162.517 374.757 159.446 371.332 157.911C366.489 155.903 363.537 157.793 359.285 158.856L359.639 158.738Z" fill="#EDF5FB"/>
<path fill-rule="evenodd" clip-rule="evenodd" d="M194.76 278.854L199.366 293.972L204.208 310.035L208.578 324.326L212.83 338.144C213.421 339.089 214.956 344.758 215.429 346.176C216.492 349.719 216.846 352.317 220.507 352.199L223.106 351.963L227.948 295.389C227.712 295.035 227.594 294.562 227.24 294.326L295.152 232.91C296.687 231.374 297.16 231.02 298.695 229.721L305.427 223.461C306.49 222.398 307.671 221.689 308.852 220.627L329.167 202.083C331.529 200.076 334.836 198.068 334.6 195.351C330.23 192.28 321.018 199.249 315.939 202.674C294.679 216.729 269.05 232.319 246.964 246.256L203.736 273.539C201.256 275.193 197.594 277.673 194.996 278.736L194.76 278.854Z" fill="#C8DAEA"/>
<path fill-rule="evenodd" clip-rule="evenodd" d="M220.51 352.317V352.672C223.817 352.908 226.415 352.79 229.132 351.373C232.911 349.483 232.675 347.947 234.801 347.357C235.155 346.766 242.005 339.444 243.068 339.207C244.013 337.318 247.793 334.365 249.446 332.711L251.808 330.822C252.99 328.578 255.234 327.397 257.005 325.507C259.013 323.263 260.312 322.082 261.966 320.428L260.549 319.129C258.541 317.475 256.533 316.176 254.407 314.641C252.99 313.696 249.21 311.216 248.738 310.035C247.911 309.68 237.163 302.476 236.691 301.177C235.273 300.468 229.958 296.925 229.368 295.744L228.069 295.507L223.226 352.081L220.628 352.317H220.51Z" fill="#A9C9DD"/>
<path fill-rule="evenodd" clip-rule="evenodd" d="M289.248 340.507C291.256 341.924 292.201 342.987 294.445 343.932C294.681 342.278 295.862 342.042 296.925 341.452L313.696 330.94C316.059 329.405 318.303 328.105 320.547 326.688L348.066 309.68L348.302 311.098C349.129 310.153 348.893 309.444 349.365 308.145L350.074 302.594C349.247 300.94 350.192 301.177 346.649 303.539L335.074 310.743C324.444 317.003 312.988 324.798 302.358 331.176L298.461 333.538C297.87 333.893 297.161 334.365 296.571 334.719C295.98 335.074 295.272 335.428 294.563 335.901C289.957 338.853 289.602 338.026 289.248 340.389V340.507Z" fill="#FCFDFE"/>
<defs>
<linearGradient id="paint0_linear_105_1457" x1="253.832" y1="20.9478" x2="253.832" y2="500.99" gradientUnits="userSpaceOnUse">
<stop stop-color="#36AEE1"/>
<stop offset="1" stop-color="#1E96C8"/>
</linearGradient>
</defs>
</svg>
